<svg xmlns="http://www.w3.org/2000/svg" viewBox="0 0 237.73 62.64"><defs><style>.cls-1{fill:#1890ff;}</style></defs><title>logo</title><g id="Layer_2" data-name="Layer 2"><g id="Layer_1-2" data-name="Layer 1"><path class="cls-1" d="M95.2,26.47A5.18,5.18,0,0,1,93.8,30a4.42,4.42,0,0,1-3.4,1.56,53.34,53.34,0,0,1-5.84-2.24,12.42,12.42,0,0,0-4.4-1.12,5.09,5.09,0,0,0-2.88.76,2.73,2.73,0,0,0-1.12,2.44q0,2,5.12,4,7.84,3,9.68,4.32,5.19,3.53,5.2,9.28a12.31,12.31,0,0,1-4.48,9.76q-4.49,3.84-11.84,3.84a23.87,23.87,0,0,1-10.48-2.48q-5.67-2.8-5.68-6.48a5.5,5.5,0,0,1,1.4-3.36,4.38,4.38,0,0,1,3.56-1.76,12.46,12.46,0,0,1,5.6,2,13.24,13.24,0,0,0,6.4,2,5.7,5.7,0,0,0,3.52-.8,3.15,3.15,0,0,0,1-2.56c0-1.33-1.71-2.67-5.12-4-5.22-2-8.45-3.46-9.68-4.32a10.75,10.75,0,0,1-5.2-9.28,12.14,12.14,0,0,1,4.4-9.67A16.74,16.74,0,0,1,80.8,18.16a21.39,21.39,0,0,1,9.28,2C93.49,21.75,95.2,23.86,95.2,26.47Z"/><path class="cls-1" d="M99.44,45.83V25A6.61,6.61,0,0,1,101,20.4a5.78,5.78,0,0,1,8.31,0A6.61,6.61,0,0,1,111,25V45.51a7.14,7.14,0,0,0,2.2,5.48,7.36,7.36,0,0,0,5.16,2,7.55,7.55,0,0,0,5.32-2,7.11,7.11,0,0,0,2.2-5.48V25a6.61,6.61,0,0,1,1.6-4.64,5.8,5.8,0,0,1,8.32,0,6.66,6.66,0,0,1,1.6,4.64V45.83q0,7.76-5,12.28t-14,4.52q-9,0-14-4.52T99.44,45.83Z"/><path class="cls-1" d="M142.55,55.74V6.41a6.65,6.65,0,0,1,1.6-4.65,5.78,5.78,0,0,1,8.32,0,6.68,6.68,0,0,1,1.59,4.65V22.16a15.76,15.76,0,0,1,10.88-4,16.24,16.24,0,0,1,13.92,7.12,26.06,26.06,0,0,1,4.64,15.59,23.26,23.26,0,0,1-5.12,15,16.91,16.91,0,0,1-13.76,6.8,14.36,14.36,0,0,1-6.16-1.36,9.9,9.9,0,0,1-4.4-3.92,7,7,0,0,1-2,3.6,5.47,5.47,0,0,1-3.75,1.2,5.33,5.33,0,0,1-4.16-1.77A6.61,6.61,0,0,1,142.55,55.74Zm11.51-15.67a14.86,14.86,0,0,0,2.08,8.08A7.76,7.76,0,0,0,163,52.07a7.66,7.66,0,0,0,6.72-3.76A14,14,0,0,0,172,40.39a13.94,13.94,0,0,0-2.16-7.84,7.83,7.83,0,0,0-6.8-3.84,7.62,7.62,0,0,0-6.6,3.36A13.59,13.59,0,0,0,154.06,40.07Z"/><path class="cls-1" d="M187.26,55.75V25a6.61,6.61,0,0,1,1.6-4.64,5.8,5.8,0,0,1,8.32,0,6.66,6.66,0,0,1,1.6,4.64V55.75a6.66,6.66,0,0,1-1.6,4.64,5.8,5.8,0,0,1-8.32,0A6.61,6.61,0,0,1,187.26,55.75Z"/><path class="cls-1" d="M202.05,54.63l18.08-25.44H206.85a5.31,5.31,0,0,1-3.71-1.4,4.71,4.71,0,0,1-1.57-3.71,4.62,4.62,0,0,1,1.49-3.64,5.47,5.47,0,0,1,3.79-1.32h26.08a4.48,4.48,0,0,1,2.32.56,3.25,3.25,0,0,1,1.52,2.95,5.41,5.41,0,0,1-.24,1.84,7.4,7.4,0,0,1-1,1.69L217.41,51.59h15.2a5.28,5.28,0,0,1,3.64,1.32,4.64,4.64,0,0,1,1.48,3.64,4.93,4.93,0,0,1-1.44,3.76,5.14,5.14,0,0,1-3.68,1.36H205.73a5.31,5.31,0,0,1-3.36-1,3.58,3.58,0,0,1-1.27-3,4.5,4.5,0,0,1,.39-1.84C201.76,55.24,202,54.84,202.05,54.63Z"/><path class="cls-1" d="M53.13,53.49a19.16,19.16,0,0,0,5.74-13.34c0-12.43-13.18-22.5-29.43-22.5S0,27.72,0,40.15,13.18,62.64,29.44,62.64c.77,0,1.53,0,2.29-.07H60.41C56.06,60.65,54.06,56.75,53.13,53.49ZM43,43.86H33.73v9.22H26.31V43.86H17.09V36.43h9.22V27.21h7.42v9.22H43Z"/></g></g></svg>