<svg width="120" height="32" viewBox="0 0 120 32" fill="none" xmlns="http://www.w3.org/2000/svg">
<g clip-path="url(#clip0)">
<path d="M48.0559 13.3605C48.0627 14.0278 47.813 14.6721 47.3582 15.1605C47.1488 15.4096 46.8871 15.6093 46.5916 15.7456C46.2962 15.8819 45.9743 15.9513 45.6489 15.9489C44.644 15.6301 43.6586 15.2527 42.6978 14.8186C41.9954 14.4924 41.2382 14.3007 40.4652 14.2535C39.9515 14.2304 39.4429 14.3643 39.0071 14.6372C38.8165 14.7773 38.6647 14.9634 38.5659 15.1782C38.467 15.393 38.4244 15.6294 38.4419 15.8652C38.4419 16.5628 39.3071 17.2117 41.0303 17.8884C42.7174 18.4733 44.3512 19.2015 45.914 20.0652C46.72 20.5507 47.3856 21.2377 47.8456 22.0585C48.3055 22.8793 48.5439 23.8057 48.5373 24.7465C48.5574 25.686 48.3644 26.6179 47.9729 27.4721C47.5814 28.3264 47.0016 29.0809 46.2768 29.6791C44.5887 31.0305 42.4646 31.7178 40.3047 31.6117C38.4698 31.6042 36.6608 31.1771 35.0164 30.3628C33.1047 29.4326 32.1489 28.3419 32.1489 27.0907C32.1806 26.4624 32.4269 25.864 32.8466 25.3954C33.0544 25.115 33.3261 24.8883 33.6392 24.7342C33.9523 24.5801 34.2977 24.503 34.6466 24.5093C35.6433 24.6181 36.5999 24.9625 37.4373 25.514C38.4215 26.128 39.55 26.4721 40.7094 26.5117C41.3285 26.5751 41.9513 26.4329 42.4815 26.107C42.6546 25.9424 42.7884 25.7408 42.8729 25.5174C42.9575 25.2939 42.9906 25.0543 42.9699 24.8163C42.9699 24.1186 42.1047 23.4698 40.3815 22.8C38.6938 22.214 37.0598 21.4834 35.4978 20.6163C34.6914 20.1313 34.0253 19.4444 33.5653 18.6235C33.1053 17.8026 32.8672 16.8759 32.8745 15.9349C32.8496 15.0059 33.0364 14.0834 33.4208 13.2373C33.8052 12.3912 34.3771 11.6436 35.0931 11.0512C36.6937 9.74158 38.7199 9.06617 40.7861 9.15352C42.4019 9.13606 44.0012 9.47928 45.4675 10.1582C47.1931 10.9768 48.0559 12.0442 48.0559 13.3605Z" fill="white"/>
<path d="M50.1908 23.1348V12.6697C50.1517 11.8158 50.4413 10.9794 51.0001 10.3325C51.2719 10.0523 51.5973 9.8296 51.9568 9.67748C52.3163 9.52537 52.7027 9.44699 53.0931 9.44699C53.4835 9.44699 53.8699 9.52537 54.2294 9.67748C54.589 9.8296 54.9143 10.0523 55.1861 10.3325C55.7449 10.9794 56.0345 11.8158 55.9954 12.6697V22.9744C55.9671 23.4921 56.0517 24.0099 56.2432 24.4917C56.4348 24.9736 56.7287 25.408 57.1047 25.7651C57.8025 26.4383 58.7375 26.8093 59.7071 26.7976C60.7034 26.8201 61.6684 26.4492 62.3931 25.7651C62.7691 25.408 63.0631 24.9736 63.2546 24.4917C63.4461 24.0099 63.5307 23.4921 63.5024 22.9744V12.6349C63.4633 11.7809 63.753 10.9445 64.3117 10.2976C64.5836 10.0175 64.9089 9.79471 65.2684 9.6426C65.6279 9.49049 66.0143 9.41211 66.4047 9.41211C66.7951 9.41211 67.1815 9.49049 67.5411 9.6426C67.9006 9.79471 68.2259 10.0175 68.4978 10.2976C69.0546 10.9452 69.3418 11.7818 69.3001 12.6349V23.1C69.3612 24.2528 69.17 25.405 68.7399 26.4763C68.3097 27.5475 67.6508 28.512 66.8094 29.3023C65.1257 30.8232 62.7629 31.5837 59.721 31.5837C56.6792 31.5837 54.3303 30.8232 52.6745 29.3023C51.843 28.5121 51.1909 27.5525 50.7624 26.4885C50.3339 25.4244 50.139 24.2808 50.1908 23.1348Z" fill="white"/>
<path d="M71.9582 28.1372V3.23722C71.9178 2.38012 72.2046 1.53971 72.7605 0.886061C73.0252 0.596582 73.3491 0.367581 73.7103 0.214674C74.0715 0.061767 74.4615 -0.0114503 74.8535 1.46802e-05C75.2464 -0.0124466 75.6372 0.0610111 75.9987 0.215256C76.3602 0.369502 76.6837 0.600815 76.9465 0.893038C77.5068 1.54457 77.7964 2.38586 77.7558 3.2442V11.1628C79.2628 9.81645 81.2264 9.09538 83.2465 9.14653C84.6253 9.10599 85.992 9.41401 87.2201 10.0421C88.4482 10.6701 89.4979 11.5979 90.2721 12.7395C91.8723 15.0456 92.6914 17.8037 92.6093 20.6093C92.6592 23.3502 91.7457 26.0217 90.0279 28.1582C89.2209 29.2429 88.1672 30.12 86.954 30.7169C85.7409 31.3137 84.403 31.6133 83.0512 31.5907C81.9751 31.5915 80.9123 31.3532 79.9396 30.893C79.0147 30.4751 78.2404 29.7835 77.721 28.9116C77.588 29.6139 77.2478 30.2603 76.7442 30.7675C76.2069 31.1939 75.5313 31.4075 74.8465 31.3675C74.4543 31.3803 74.0639 31.3077 73.7025 31.1547C73.3411 31.0017 73.0173 30.772 72.7535 30.4814C72.1994 29.8299 71.9149 28.9914 71.9582 28.1372ZM77.7698 20.2326C77.7207 21.6652 78.0839 23.0818 78.8163 24.314C79.1658 24.927 79.6745 25.4341 80.2886 25.7816C80.9026 26.1292 81.5992 26.3043 82.3047 26.2884C82.9821 26.3007 83.6509 26.1344 84.2437 25.8061C84.8364 25.4779 85.3323 24.9993 85.6814 24.4186C86.4517 23.2301 86.8456 21.8369 86.8116 20.4209C86.8493 19.0236 86.4704 17.6466 85.7233 16.4651C85.3772 15.8698 84.8817 15.3752 84.2858 15.0301C83.6898 14.6851 83.0142 14.5015 82.3256 14.4977C81.672 14.4708 81.0225 14.6126 80.4396 14.9095C79.8567 15.2065 79.3602 15.6485 78.9977 16.193C78.1721 17.3761 77.7422 18.7902 77.7698 20.2326Z" fill="white"/>
<path d="M94.5208 28.1441V12.6348C94.4818 11.7809 94.7714 10.9445 95.3301 10.2976C95.602 10.0175 95.9273 9.79471 96.2868 9.6426C96.6464 9.49049 97.0328 9.41211 97.4232 9.41211C97.8135 9.41211 98.1999 9.49049 98.5595 9.6426C98.919 9.79471 99.2443 10.0175 99.5162 10.2976C100.075 10.9445 100.365 11.7809 100.325 12.6348V28.1441C100.363 28.9978 100.074 29.8337 99.5162 30.4814C99.2434 30.7598 98.9177 30.981 98.5583 31.132C98.1989 31.2831 97.813 31.3609 97.4232 31.3609C97.0333 31.3609 96.6474 31.2831 96.288 31.132C95.9286 30.981 95.603 30.7598 95.3301 30.4814C94.7726 29.8337 94.4832 28.9978 94.5208 28.1441Z" fill="white"/>
<path d="M101.993 27.5792L111.119 14.735H104.414C103.723 14.7487 103.052 14.4993 102.537 14.0373C102.277 13.8011 102.071 13.5106 101.935 13.1864C101.799 12.8621 101.735 12.512 101.749 12.1606C101.731 11.8186 101.788 11.477 101.917 11.1598C102.047 10.8427 102.244 10.5579 102.495 10.3257C103.024 9.85914 103.709 9.60989 104.414 9.628H117.579C117.988 9.61813 118.393 9.71683 118.751 9.91404C119.002 10.0706 119.205 10.2921 119.341 10.5549C119.476 10.8177 119.537 11.1121 119.519 11.4071C119.532 11.7214 119.489 12.0355 119.393 12.335C119.259 12.6394 119.083 12.9236 118.87 13.1792L109.744 26.0443H117.419C118.097 26.0321 118.754 26.2819 119.254 26.742C119.5 26.9709 119.694 27.2501 119.823 27.5607C119.952 27.8713 120.012 28.2059 120 28.542C120.023 28.8895 119.973 29.2381 119.853 29.565C119.733 29.8919 119.545 30.1899 119.302 30.4396C119.054 30.6722 118.762 30.8535 118.444 30.9732C118.126 31.0929 117.787 31.1487 117.447 31.1373H103.849C103.242 31.1668 102.644 30.987 102.154 30.628C101.933 30.4455 101.76 30.2128 101.648 29.9493C101.536 29.6858 101.49 29.3994 101.512 29.114C101.51 28.7936 101.579 28.4766 101.714 28.1861C101.861 27.9071 101.937 27.6838 101.993 27.5792Z" fill="white"/>
<path d="M26.8186 27C28.6303 25.2231 29.6704 22.8048 29.714 20.2674C29.714 13.9884 23.0651 8.9093 14.8605 8.9093C6.65581 8.9093 0 13.9953 0 20.2674C0 26.5395 6.65581 31.6186 14.8605 31.6186C15.2512 31.6186 15.6349 31.6186 16.0116 31.6186H30.4953C29.5746 31.1748 28.7658 30.5291 28.1292 29.7294C27.4927 28.9298 27.0447 27.9968 26.8186 27ZM21.6767 22.1163H17.0233V26.7907H13.2558V22.1372H8.62326V18.3907H13.2558V13.7372H17.0233V18.3907H21.6767V22.1163Z" fill="white"/>
</g>
<defs>
<clipPath id="clip0">
<rect width="120" height="31.6186" fill="white"/>
</clipPath>
</defs>
</svg>
